<svg width="1200" height="280" viewBox="0 0 1200 280" fill="none" xmlns="http://www.w3.org/2000/svg">
  <rect width="1200" height="280" fill="#F8FAFC"/>
  <text x="48" y="42" fill="#0F172A" font-family="IBM Plex Sans, Arial, sans-serif" font-size="28" font-weight="700">Data and Live Interface</text>

  <rect x="48" y="72" width="540" height="176" rx="14" fill="white" stroke="#E2E8F0"/>
  <text x="72" y="106" fill="#0F172A" font-family="IBM Plex Sans, Arial, sans-serif" font-size="18" font-weight="700">Data Source Layer</text>

  <rect x="72" y="124" width="112" height="28" rx="14" fill="#ECFEFF" stroke="#0EA5A4"/>
  <text x="128" y="143" text-anchor="middle" fill="#0F766E" font-family="IBM Plex Sans, Arial, sans-serif" font-size="13" font-weight="700">bundle: active</text>

  <rect x="194" y="124" width="116" height="28" rx="14" fill="#F8FAFC" stroke="#CBD5E1"/>
  <text x="252" y="143" text-anchor="middle" fill="#475569" font-family="IBM Plex Sans, Arial, sans-serif" font-size="13">csv: reserved</text>

  <rect x="320" y="124" width="130" height="28" rx="14" fill="#F8FAFC" stroke="#CBD5E1"/>
  <text x="385" y="143" text-anchor="middle" fill="#475569" font-family="IBM Plex Sans, Arial, sans-serif" font-size="13">parquet: reserved</text>

  <rect x="460" y="124" width="112" height="28" rx="14" fill="#F8FAFC" stroke="#CBD5E1"/>
  <text x="516" y="143" text-anchor="middle" fill="#475569" font-family="IBM Plex Sans, Arial, sans-serif" font-size="13">custom: reserved</text>

  <text x="72" y="182" fill="#334155" font-family="Source Sans 3, Arial, sans-serif" font-size="15">Interfaces are replaceable by design via schema contract.</text>

  <path d="M600 160H708" stroke="#94A3B8" stroke-width="3" stroke-dasharray="8 6"/>
  <path d="M708 160L698 154V166L708 160Z" fill="#94A3B8"/>

  <rect x="724" y="72" width="428" height="176" rx="14" fill="white" stroke="#E2E8F0"/>
  <text x="748" y="106" fill="#0F172A" font-family="IBM Plex Sans, Arial, sans-serif" font-size="18" font-weight="700">Live Interface Layer</text>

  <rect x="748" y="124" width="132" height="28" rx="14" fill="#F0F9FF" stroke="#0284C7"/>
  <text x="814" y="143" text-anchor="middle" fill="#0369A1" font-family="IBM Plex Sans, Arial, sans-serif" font-size="13" font-weight="700">ibkr: reserved</text>

  <text x="748" y="182" fill="#334155" font-family="Source Sans 3, Arial, sans-serif" font-size="15">Validation-only placeholder in this runner.</text>
  <text x="748" y="204" fill="#334155" font-family="Source Sans 3, Arial, sans-serif" font-size="15">No production live order execution is claimed.</text>
</svg>
