<svg width="1200" height="400" viewBox="0 0 1200 400" fill="none" xmlns="http://www.w3.org/2000/svg">
  <rect width="1200" height="400" fill="#F8FAFC"/>
  <rect x="40" y="40" width="1120" height="320" rx="20" fill="white" stroke="#E2E8F0"/>

  <text x="90" y="140" fill="#0F172A" font-family="IBM Plex Sans, Arial, sans-serif" font-size="44" font-weight="700">
    AI-agent backtesting skill
  </text>
  <text x="90" y="185" fill="#334155" font-family="Source Sans 3, Arial, sans-serif" font-size="26" font-weight="600">
    Schema-driven workflow for AI agents, built on Zipline
  </text>
  <text x="90" y="225" fill="#334155" font-family="Source Sans 3, Arial, sans-serif" font-size="20">
    Repeatable strategy tests with structured diagnostics
  </text>

  <rect x="90" y="255" width="180" height="36" rx="18" fill="#ECFEFF" stroke="#0EA5A4"/>
  <text x="180" y="279" text-anchor="middle" fill="#0F766E" font-family="IBM Plex Sans, Arial, sans-serif" font-size="16" font-weight="700">for AI agents</text>

  <rect x="285" y="255" width="170" height="36" rx="18" fill="#F0F9FF" stroke="#0284C7"/>
  <text x="370" y="279" text-anchor="middle" fill="#0369A1" font-family="IBM Plex Sans, Arial, sans-serif" font-size="16" font-weight="700">Built on Zipline</text>

  <rect x="470" y="255" width="170" height="36" rx="18" fill="#F0FDF4" stroke="#16A34A"/>
  <text x="555" y="279" text-anchor="middle" fill="#15803D" font-family="IBM Plex Sans, Arial, sans-serif" font-size="16" font-weight="700">OOS-aware</text>

  <rect x="760" y="86" width="330" height="220" rx="14" fill="#0F172A"/>
  <rect x="790" y="120" width="270" height="3" fill="#334155"/>
  <rect x="790" y="160" width="220" height="3" fill="#334155"/>
  <rect x="790" y="200" width="250" height="3" fill="#334155"/>

  <rect x="800" y="228" width="16" height="48" fill="#0EA5A4"/>
  <rect x="830" y="214" width="16" height="62" fill="#22C55E"/>
  <rect x="860" y="242" width="16" height="34" fill="#F59E0B"/>
  <rect x="890" y="198" width="16" height="78" fill="#22C55E"/>
  <rect x="920" y="236" width="16" height="40" fill="#F43F5E"/>
  <rect x="950" y="210" width="16" height="66" fill="#22C55E"/>
  <rect x="980" y="226" width="16" height="50" fill="#0EA5A4"/>

  <text x="925" y="108" text-anchor="middle" fill="#E2E8F0" font-family="IBM Plex Sans, Arial, sans-serif" font-size="16" font-weight="600">idea → schema → diagnostics</text>
</svg>
