<svg width="1200" height="260" viewBox="0 0 1200 260" fill="none" xmlns="http://www.w3.org/2000/svg">
  <rect width="1200" height="260" fill="#F8FAFC"/>
  <text x="60" y="44" fill="#0F172A" font-family="IBM Plex Sans, Arial, sans-serif" font-size="28" font-weight="700">How it works</text>

  <rect x="60" y="80" width="200" height="120" rx="14" fill="white" stroke="#E2E8F0"/>
  <text x="160" y="132" text-anchor="middle" fill="#0F172A" font-family="IBM Plex Sans, Arial, sans-serif" font-size="18" font-weight="700">Idea / Prompt</text>
  <text x="160" y="156" text-anchor="middle" fill="#334155" font-family="Source Sans 3, Arial, sans-serif" font-size="14">strategy hypothesis</text>

  <rect x="300" y="80" width="200" height="120" rx="14" fill="white" stroke="#E2E8F0"/>
  <text x="400" y="132" text-anchor="middle" fill="#0F172A" font-family="IBM Plex Sans, Arial, sans-serif" font-size="18" font-weight="700">Schema JSON</text>
  <text x="400" y="156" text-anchor="middle" fill="#334155" font-family="Source Sans 3, Arial, sans-serif" font-size="14">validated input</text>

  <rect x="540" y="80" width="200" height="120" rx="14" fill="#ECFEFF" stroke="#0EA5A4"/>
  <text x="640" y="132" text-anchor="middle" fill="#0F172A" font-family="IBM Plex Sans, Arial, sans-serif" font-size="18" font-weight="700">AI Skill Runner</text>
  <text x="640" y="156" text-anchor="middle" fill="#0F766E" font-family="Source Sans 3, Arial, sans-serif" font-size="14">agent-first workflow</text>

  <rect x="780" y="80" width="200" height="120" rx="14" fill="#F0F9FF" stroke="#0284C7"/>
  <text x="880" y="132" text-anchor="middle" fill="#0F172A" font-family="IBM Plex Sans, Arial, sans-serif" font-size="18" font-weight="700">Zipline Core</text>
  <text x="880" y="156" text-anchor="middle" fill="#0369A1" font-family="Source Sans 3, Arial, sans-serif" font-size="14">mature backtesting engine</text>

  <rect x="1020" y="80" width="120" height="120" rx="14" fill="white" stroke="#E2E8F0"/>
  <text x="1080" y="126" text-anchor="middle" fill="#0F172A" font-family="IBM Plex Sans, Arial, sans-serif" font-size="16" font-weight="700">Report</text>
  <text x="1080" y="150" text-anchor="middle" fill="#334155" font-family="Source Sans 3, Arial, sans-serif" font-size="13">metrics</text>
  <text x="1080" y="168" text-anchor="middle" fill="#334155" font-family="Source Sans 3, Arial, sans-serif" font-size="13">risk</text>

  <path d="M260 140H292" stroke="#94A3B8" stroke-width="3"/>
  <path d="M500 140H532" stroke="#94A3B8" stroke-width="3"/>
  <path d="M740 140H772" stroke="#94A3B8" stroke-width="3"/>
  <path d="M980 140H1012" stroke="#94A3B8" stroke-width="3"/>

  <path d="M292 140L284 134V146L292 140Z" fill="#94A3B8"/>
  <path d="M532 140L524 134V146L532 140Z" fill="#94A3B8"/>
  <path d="M772 140L764 134V146L772 140Z" fill="#94A3B8"/>
  <path d="M1012 140L1004 134V146L1012 140Z" fill="#94A3B8"/>
</svg>
